<?xml version="1.0" standalone="no"?>
<!DOCTYPE svg PUBLIC "-//W3C//DTD SVG 20010904//EN"
 "http://www.w3.org/TR/2001/REC-SVG-20010904/DTD/svg10.dtd">
<svg version="1.0" xmlns="http://www.w3.org/2000/svg"
 width="100.000000pt" height="100.000000pt" viewBox="0 0 100.000000 100.000000"
 preserveAspectRatio="xMidYMid meet">
<metadata>
Created by potrace 1.11, written by Peter Selinger 2001-2013
</metadata>
<g transform="translate(0.000000,100.000000) scale(0.100000,-0.100000)"
fill="#000000" stroke="none">
<path d="M100 898 c-44 -46 0 -148 63 -148 58 0 91 64 63 119 -29 54 -89 68
-126 29z"/>
<path d="M404 905 c-76 -21 -144 -65 -144 -93 0 -37 -17 -60 -60 -82 -27 -14
-45 -32 -55 -56 -19 -46 -41 -152 -33 -160 4 -3 39 2 79 11 l73 16 18 -25 c57
-77 55 -77 50 10 l-4 79 91 80 c51 45 89 86 86 93 -2 7 -10 42 -17 77 -6 36
-16 65 -22 64 -6 0 -34 -7 -62 -14z"/>
<path d="M674 455 l6 -81 -90 -79 c-100 -89 -95 -73 -68 -197 9 -46 10 -47 41
-41 101 19 187 70 187 109 0 28 49 84 74 84 27 0 76 123 76 193 0 32 7 31 -82
11 -80 -18 -67 -24 -128 54 l-21 27 5 -80z"/>
<path d="M165 476 l-50 -12 3 -49 c3 -66 58 -185 84 -185 27 0 88 -63 88 -90
0 -16 13 -27 56 -47 65 -29 144 -42 144 -24 0 7 -7 44 -16 84 l-17 72 47 40
46 41 -77 -1 -77 0 -69 90 c-75 98 -81 101 -162 81z"/>
<path d="M813 220 c-51 -21 -58 -96 -14 -141 36 -36 73 -37 106 -4 41 40 25
118 -30 143 -30 14 -32 14 -62 2z"/>
<path d="M139 171 c-78 -79 14 -189 98 -117 22 19 28 33 28 64 0 80 -69 109
-126 53z"/>
</g>
</svg>
